<?xml version="1.0" standalone="no"?>
   <!DOCTYPE svg PUBLIC "-//W3C//DTD SVG 1.1//EN" 
   "http://www.w3.org/Graphics/SVG/1.1/DTD/svg11.dtd"><svg id="svg" version="1.1" width="735" height="1035" xmlns="http://www.w3.org/2000/svg"><path d="M280.500 85.889 C 262.464 90.283,228.961 103.584,225.515 107.719 C 222.826 110.946,222.107 116.876,223.305 125.963 C 224.750 136.921,227.445 141.524,237.790 150.709 C 244.781 156.914,251.408 161.994,252.517 161.996 C 253.627 161.998,256.165 166.941,258.159 172.981 C 263.047 187.793,259.511 228.220,251.802 245.647 C 248.524 253.058,243.121 269.778,239.795 282.802 C 232.781 310.275,231.350 313.144,212.025 338.471 C 204.064 348.906,196.832 361.873,195.953 367.287 C 194.580 375.748,195.350 377.398,201.428 379.025 C 210.625 381.487,428.360 381.578,440.625 379.125 C 445.781 378.094,450.000 375.504,450.000 373.370 C 450.000 371.236,443.807 362.292,436.239 353.495 C 414.652 328.405,393.000 280.159,393.000 257.150 C 393.000 246.219,402.486 253.506,407.775 268.500 C 428.272 326.607,458.784 351.197,528.447 365.754 C 542.474 368.684,545.951 370.691,548.627 377.397 C 565.063 418.594,573.350 564.534,564.674 660.000 C 558.802 724.608,557.255 771.000,560.972 771.000 C 567.047 771.000,572.372 752.011,578.641 708.000 C 584.991 663.424,589.162 621.434,592.498 568.500 C 594.999 528.830,589.460 441.690,582.347 408.779 C 570.947 356.034,570.298 360.141,592.619 343.752 C 624.481 320.357,638.078 297.160,641.107 261.029 C 645.162 212.668,616.246 163.230,574.387 146.952 C 556.033 139.815,553.783 139.694,481.541 141.941 L 463.582 142.500 456.657 123.000 C 452.848 112.275,445.718 99.450,440.811 94.500 L 431.891 85.500 359.196 84.964 C 319.213 84.669,283.800 85.086,280.500 85.889 M565.150 166.465 C 584.420 175.581,600.649 191.330,609.700 209.700 C 615.241 220.944,616.500 228.501,616.500 250.500 C 616.500 274.929,615.664 278.928,607.723 292.500 C 599.738 306.148,574.439 332.890,569.440 332.968 C 567.526 332.998,559.745 317.566,528.614 252.000 C 521.955 237.975,513.313 221.775,509.411 216.000 C 499.078 200.711,483.000 171.569,483.000 168.131 C 483.000 163.271,500.989 159.559,525.936 159.271 C 545.045 159.050,552.284 160.378,565.150 166.465 M478.344 250.568 C 496.986 256.223,504.778 263.506,513.089 283.045 C 516.704 291.545,522.854 305.552,526.754 314.170 C 530.654 322.789,534.702 333.251,535.748 337.420 C 537.387 343.948,536.652 345.000,530.456 345.000 C 516.786 345.000,487.513 335.671,474.030 327.018 C 454.558 314.522,443.161 301.405,430.838 277.305 C 415.251 246.822,415.540 245.993,441.750 246.032 C 453.713 246.050,470.180 248.091,478.344 250.568 M160.500 400.178 C 146.321 406.391,132.618 422.530,119.816 448.097 C 103.141 481.399,103.998 493.942,123.042 495.321 C 150.366 497.299,151.654 496.136,160.669 461.348 C 163.353 450.989,168.638 435.086,172.413 426.007 C 184.124 397.844,184.375 395.984,176.452 396.117 C 172.628 396.182,165.450 398.009,160.500 400.178 M210.866 398.401 C 208.868 399.671,205.016 406.063,202.306 412.605 C 199.596 419.147,194.898 429.990,191.865 436.699 C 188.833 443.409,184.659 458.084,182.591 469.311 C 177.336 497.831,177.677 498.011,236.823 497.959 C 262.496 497.937,286.552 497.100,290.283 496.101 C 299.360 493.668,300.982 485.606,301.264 441.521 C 301.565 394.437,303.234 395.984,252.177 396.046 C 231.454 396.071,212.865 397.131,210.866 398.401 M341.405 398.038 C 334.131 399.954,331.792 420.401,334.304 460.111 C 335.463 478.426,336.989 493.989,337.694 494.694 C 340.395 497.395,431.093 498.361,442.500 495.810 L 454.500 493.126 454.170 476.813 C 453.934 465.137,450.166 451.333,440.916 428.250 L 427.992 396.000 387.246 396.348 C 364.836 396.539,344.207 397.300,341.405 398.038 M457.154 400.321 C 456.110 403.040,459.525 416.066,464.742 429.269 C 469.959 442.471,476.319 462.535,478.876 473.855 C 483.923 496.203,485.897 497.878,507.285 497.959 C 519.484 498.005,528.000 490.760,528.000 480.335 C 528.000 467.228,504.917 424.609,490.740 411.542 C 483.257 404.644,475.189 399.000,472.812 399.000 C 470.435 399.000,466.367 398.185,463.771 397.189 C 460.915 396.093,458.301 397.330,457.154 400.321 M185.408 515.220 C 174.633 517.673,163.829 582.773,170.728 603.676 C 173.877 613.218,175.509 614.391,188.021 616.106 C 205.575 618.512,281.298 618.508,290.283 616.101 C 299.705 613.576,301.550 604.344,301.185 561.543 C 300.952 534.139,299.789 523.565,296.685 520.637 C 293.688 517.810,278.020 516.316,241.500 515.375 C 213.450 514.652,188.208 514.582,185.408 515.220 M350.470 515.428 C 336.639 517.027,334.741 522.624,333.488 565.533 C 332.397 602.858,332.718 605.718,338.662 611.662 C 343.660 616.660,348.963 618.073,363.750 618.344 C 374.063 618.534,394.650 619.190,409.500 619.802 C 440.289 621.071,454.397 619.174,460.647 612.924 C 469.348 604.224,464.059 526.933,454.203 518.754 C 450.272 515.491,371.715 512.973,350.470 515.428 M111.000 518.187 C 103.938 520.875,99.250 531.288,93.753 556.500 C 90.801 570.036,90.048 607.793,92.651 611.730 C 96.148 617.020,124.745 619.593,135.177 615.555 C 142.732 612.632,142.906 611.855,146.155 566.552 C 148.648 531.799,148.605 519.976,145.979 518.305 C 141.953 515.744,117.634 515.661,111.000 518.187 M489.704 519.750 C 487.749 522.168,487.435 538.727,488.820 566.376 C 491.362 617.141,492.666 619.603,516.863 619.312 C 542.349 619.007,546.000 615.501,546.000 591.342 C 546.000 580.096,544.754 566.981,543.231 562.198 C 541.709 557.414,539.594 548.287,538.533 541.915 C 535.623 524.451,525.504 516.000,507.504 516.000 C 499.305 516.000,491.386 517.668,489.704 519.750 M176.582 638.759 C 169.952 644.151,169.521 646.426,169.822 674.431 C 170.150 704.885,175.270 729.830,182.410 735.755 C 188.153 740.521,284.417 740.266,293.250 735.461 C 299.784 731.906,300.000 730.357,300.000 687.065 C 300.000 629.426,304.286 633.000,235.165 633.000 C 188.842 633.000,182.953 633.579,176.582 638.759 M506.217 635.747 C 500.011 637.023,494.456 638.614,493.872 639.283 C 490.935 642.650,486.693 724.431,489.123 730.824 C 492.828 740.569,513.801 741.948,527.118 733.322 C 541.670 723.895,553.872 651.663,542.792 640.529 C 537.006 634.715,521.257 632.656,506.217 635.747 M93.600 639.600 C 88.175 645.025,89.091 688.088,95.031 706.934 C 101.842 728.540,112.899 738.818,129.332 738.818 C 143.966 738.818,151.013 732.002,148.726 720.058 C 147.929 715.901,146.369 696.300,145.259 676.500 C 144.073 655.361,141.848 639.590,139.870 638.296 C 134.284 634.643,97.521 635.679,93.600 639.600 M338.617 640.959 C 335.562 644.639,334.500 656.695,334.500 687.695 C 334.500 725.585,335.042 729.868,340.323 733.736 C 348.189 739.495,446.258 739.939,453.872 734.250 C 462.842 727.547,469.113 655.290,461.894 641.803 C 458.988 636.373,455.061 636.000,400.762 636.000 C 350.454 636.000,342.187 636.660,338.617 640.959 M114.600 756.600 C 112.620 758.580,111.000 764.323,111.000 769.363 C 111.000 783.074,128.754 830.008,139.094 843.632 C 145.132 851.587,157.736 855.332,166.833 851.873 C 175.558 848.556,175.555 848.164,166.564 813.000 C 163.822 802.275,160.342 786.075,158.830 777.000 C 157.251 767.525,153.904 758.903,150.967 756.750 C 144.449 751.970,119.334 751.866,114.600 756.600 M192.750 758.929 C 187.784 763.567,186.019 768.573,186.072 777.867 C 186.145 790.776,187.407 796.881,197.058 831.000 L 202.574 850.500 232.537 852.727 C 249.017 853.951,269.623 854.187,278.329 853.251 C 302.028 850.702,303.820 846.538,301.236 800.020 C 300.088 779.372,298.043 760.683,296.690 758.489 C 294.853 755.511,282.230 754.262,246.865 753.562 C 202.190 752.678,199.117 752.983,192.750 758.929 M386.552 755.328 C 354.528 755.932,341.708 757.237,339.301 760.138 C 334.748 765.623,331.967 813.903,335.046 834.000 L 337.574 850.500 361.537 852.954 C 386.320 855.492,424.846 853.422,431.704 849.183 C 436.898 845.973,449.936 794.183,449.972 776.617 C 450.016 754.784,448.176 754.167,386.552 755.328 M485.042 757.387 C 482.629 759.799,479.152 770.407,477.314 780.959 C 475.477 791.511,471.268 810.721,467.962 823.648 C 464.072 838.858,462.980 848.180,464.866 850.066 C 467.968 853.168,487.331 853.386,492.205 850.373 C 500.415 845.299,525.000 783.515,525.000 767.956 C 525.000 762.302,522.764 758.944,517.359 756.482 C 506.783 751.663,490.304 752.125,485.042 757.387 M221.252 869.068 C 218.366 869.822,215.205 873.622,214.229 877.512 C 212.242 885.430,219.334 912.394,228.575 932.053 L 234.661 945.000 266.917 945.000 L 299.172 945.000 301.179 922.858 C 303.298 899.477,301.161 877.010,296.223 870.750 C 294.142 868.112,283.370 867.103,259.883 867.348 C 241.522 867.539,224.138 868.313,221.252 869.068 M157.790 872.532 C 154.476 877.893,162.905 897.899,177.884 920.224 C 192.372 941.818,194.332 943.568,205.015 944.447 C 215.841 945.337,216.398 944.979,214.327 938.447 C 213.115 934.626,205.415 917.663,197.216 900.750 L 182.309 870.000 170.831 870.000 C 164.519 870.000,158.650 871.139,157.790 872.532 M339.000 872.934 C 335.442 875.182,334.500 882.731,334.500 908.993 C 334.500 935.253,335.442 942.807,339.000 945.059 C 343.958 948.198,384.584 948.968,395.193 946.124 C 403.611 943.868,415.652 919.904,420.465 895.825 C 425.346 871.414,423.004 869.987,378.177 870.046 C 359.104 870.071,341.475 871.371,339.000 872.934 M443.194 891.750 C 430.250 918.131,420.000 941.832,420.000 945.381 C 420.000 952.205,436.392 947.354,445.146 937.940 C 455.695 926.595,472.347 899.761,477.795 885.327 C 482.073 873.994,478.369 870.121,463.183 870.046 C 454.585 870.004,453.042 871.678,443.194 891.750 " stroke="none" fill="black" fill-rule="evenodd"/></svg>